<svg xmlns="http://www.w3.org/2000/svg" viewBox="0 0 500 500">
  <path fill="#fff" fill-rule="nonzero" d="M453.875 208.64a190.777 190.777 0 0 1-111.5-35.646v162.314c-.023 61.56-38.243 116.645-95.901 138.215-57.658 21.57-122.648 5.098-163.07-41.332-40.423-46.43-47.791-113.07-18.489-167.208 29.303-54.14 89.125-84.412 150.103-75.96v81.64c-27.951-8.793-58.387 1.374-75.442 25.2-17.055 23.827-16.866 55.915.468 79.539 17.335 23.624 47.888 33.432 75.734 24.31 27.845-9.12 46.676-35.103 46.675-64.404V18h79.922c-.056 6.75.51 13.49 1.69 20.135a110.964 110.964 0 0 0 48.96 72.856 110.283 110.283 0 0 0 60.85 18.291z"/>
</svg>